<?xml version="1.0" encoding="UTF-8" standalone="no"?>
<svg
   xmlns:dc="http://purl.org/dc/elements/1.1/"
   xmlns:cc="http://creativecommons.org/ns#"
   xmlns:rdf="http://www.w3.org/1999/02/22-rdf-syntax-ns#"
   xmlns:svg="http://www.w3.org/2000/svg"
   xmlns="http://www.w3.org/2000/svg"
   xmlns:sodipodi="http://sodipodi.sourceforge.net/DTD/sodipodi-0.dtd"
   xmlns:inkscape="http://www.inkscape.org/namespaces/inkscape"
   viewBox="0 0 512 512"
   id="svg2"
   version="1.1"
   inkscape:version="0.48.4 r9939"
   width="100%"
   height="100%"
   sodipodi:docname="artificial-hive.svg">
  <metadata
     id="metadata26">
    <rdf:RDF>
      <cc:Work
         rdf:about="">
        <dc:format>image/svg+xml</dc:format>
        <dc:type
           rdf:resource="http://purl.org/dc/dcmitype/StillImage" />
        <dc:title></dc:title>
      </cc:Work>
    </rdf:RDF>
  </metadata>
  <defs
     id="defs24" />
  <sodipodi:namedview
     pagecolor="#ffffff"
     bordercolor="#666666"
     borderopacity="1"
     objecttolerance="10"
     gridtolerance="10"
     guidetolerance="10"
     inkscape:pageopacity="0"
     inkscape:pageshadow="2"
     inkscape:window-width="1920"
     inkscape:window-height="1027"
     id="namedview22"
     showgrid="false"
     inkscape:zoom="0.4609375"
     inkscape:cx="-82.440678"
     inkscape:cy="256"
     inkscape:window-x="-8"
     inkscape:window-y="-8"
     inkscape:window-maximized="1"
     inkscape:current-layer="svg2" />
  <path
     style="fill:#ffffff;stroke:#000000;stroke-width:0;stroke-miterlimit:4;stroke-dasharray:none"
     d="M 251.5625 13.03125 L 40.03125 135 L 40.03125 379 L 251.5625 501 L 463.09375 379 L 463.09375 135 L 251.5625 13.03125 z M 249.90625 80.90625 L 302.3125 111.15625 L 302.3125 171.65625 L 249.90625 201.90625 L 197.5 171.65625 L 197.5 111.15625 L 249.90625 80.90625 z M 144.5625 141.375 L 196.96875 171.625 L 196.96875 232.125 L 144.5625 262.375 L 196.96875 292.625 L 196.96875 353.15625 L 144.5625 383.40625 L 92.15625 353.15625 L 92.15625 292.625 L 144.5625 262.375 L 92.15625 232.125 L 92.15625 171.625 L 144.5625 141.375 z M 354.875 141.375 L 407.28125 171.625 L 407.28125 232.125 L 354.875 262.375 L 407.28125 292.625 L 407.28125 353.15625 L 354.875 383.40625 L 302.46875 353.15625 L 302.46875 292.625 L 354.875 262.375 L 302.46875 232.125 L 302.46875 171.625 L 354.875 141.375 z M 249.90625 202 L 302.3125 232.25 L 302.3125 292.75 L 250.03125 322.9375 L 302.3125 353.09375 L 302.3125 413.625 L 249.90625 443.875 L 197.5 413.625 L 197.5 353.09375 L 249.78125 322.9375 L 197.5 292.75 L 197.5 232.25 L 249.90625 202 z "
     id="path6" />
</svg>
