<?xml version="1.0" encoding="UTF-8" standalone="no"?>
<svg width="512px" height="512px" viewBox="0 0 512 512" version="1.1" xmlns="http://www.w3.org/2000/svg" xmlns:xlink="http://www.w3.org/1999/xlink" xmlns:sketch="http://www.bohemiancoding.com/sketch/ns">
    <!-- Generator: Sketch 3.1.1 (8761) - http://www.bohemiancoding.com/sketch -->
    <title>thread</title>
    <desc>Created with Sketch.</desc>
    <defs></defs>
    <g id="Page-1" stroke="none" stroke-width="1" fill="none" fill-rule="evenodd" sketch:type="MSPage">
        <g id="thread" sketch:type="MSLayerGroup">
            <path d="M0,0 L512,0 L512,512 L0,512 L0,0 Z" id="Shape" fill="#252734" sketch:type="MSShapeGroup"></path>
            <g id="Group" transform="translate(40.013900, 22.250700)" sketch:type="MSShapeGroup">
                <path d="M87.0677425,467.795232 L365.789225,469.753795 C297.717941,407.623611 301.448181,300.674474 365.275289,230.936169 C436.658189,152.941249 455.956016,1.48339034 345.009392,1.48339034 C290.498542,12.0742086 119.974594,14.200969 66.2879103,-0.475172842 C167.353882,43.2187272 126.435236,135.850543 66.4673207,230.160593 C7.2562927,323.278312 -5.75656555,467.797101 87.0677425,467.797101 L87.0677425,467.795232 Z" id="Shape" fill="#FFFFFF"></path>
                <path d="M137.760516,366.280734 L387.770732,366.280734 C483.998231,366.280734 474.650203,479.088741 406.543411,479.088741 L143.116663,479.088741" id="Shape" stroke="#252734" stroke-width="18.68858" fill="#FFFFFF"></path>
                <path d="M175.872893,475.741037 C189.806832,423.741507 191.25348,367.525273 128.203302,365.080948 C101.863256,364.060044 78.3434432,388.183554 79.9573251,415.467158 C81.1847846,436.219577 98.5478161,454.696468 120.094926,453.126971 C136.079501,451.963239 150.312186,438.446412 148.82657,421.803576 L160.815407,377.063984" id="Shape" stroke="#252734" stroke-width="18.6878995" transform="translate(131.798848, 420.395355) rotate(75.001121) translate(-131.798848, -420.395355) "></path>
                <path d="M109.2623,16.544517 C72.6196013,-1.52547104 31.5832173,-0.751763826 7.94777016,35.1602115 C-12.291962,65.9141387 9.25783962,118.701902 56.7679477,118.701902 C101.246768,118.701902 83.0422223,79.8894589 61.0794031,49.1859908 L149.870716,49.1859908" id="Shape" stroke="#FFFFFF" stroke-width="18.68858"></path>
                <path d="M58.3490016,119.384035 L147.549594,119.384035" id="Shape" stroke="#FFFFFF" stroke-width="18.68858"></path>
                <path d="M45.076372,225.097857 L95.0552415,276.298959 L26.6998913,287.747583" id="Shape" fill="#252734"></path>
                <path d="M370.250189,78.4448316 L413.622645,104.253761 L375.352171,111.159191 L433.182113,146.133 L449.340259,65.0170869 L370.24832,78.4467005 L370.250189,78.4448316 Z" id="Shape" fill="#252734"></path>
                <path d="M457.572579,362.387903 L377.129455,401.688118 L452.023939,410.475488" id="Shape" fill="#252734"></path>
            </g>
        </g>
    </g>
</svg>