<?xml version="1.0" encoding="UTF-8" standalone="no"?>
<svg width="512px" height="513px" viewBox="0 0 512 513" version="1.1" xmlns="http://www.w3.org/2000/svg" xmlns:xlink="http://www.w3.org/1999/xlink" xmlns:sketch="http://www.bohemiancoding.com/sketch/ns">
    <!-- Generator: Sketch 3.1.1 (8761) - http://www.bohemiancoding.com/sketch -->
    <title>thread-locked</title>
    <desc>Created with Sketch.</desc>
    <defs></defs>
    <g id="Page-1" stroke="none" stroke-width="1" fill="none" fill-rule="evenodd" sketch:type="MSPage">
        <g id="thread-locked" sketch:type="MSLayerGroup" transform="translate(-22.000000, 1.000000)">
            <path d="M22,0 L534,0 L534,512 L22,512 L22,0 Z" id="Shape" fill="#252734" sketch:type="MSShapeGroup"></path>
            <g id="Group" transform="translate(-0.111130, 0.091720)" sketch:type="MSShapeGroup">
                <path d="M346.157774,264.133919 C408.816845,274.345359 411.539771,340.626277 505.023786,368.803049 C476.680686,397.942283 451.606218,392.503906 412.048101,369.214197 L286.029137,310.457302" id="Shape" fill="#FFFFFF"></path>
                <path d="M49.7269938,275.965659 C201.973511,220.340969 296.259266,178.656091 363.115792,33.0571024 C376.059502,4.87285487 448.044175,18.2052878 486.72206,63.8259805 C524.469254,108.353391 517.190052,184.27201 491.076499,188.994614 C334.888561,217.227452 254.836028,298.588185 193.916864,448.401449 L49.7269938,275.965659 Z" id="Shape" fill="#FFFFFF"></path>
                <path d="M154.739965,374.51616 C154.739965,435.188009 133.126026,484.371425 106.464278,484.371425 C79.8025295,484.371425 58.1885906,435.188009 58.1885906,374.51616 C58.1885906,313.844312 79.8025295,264.660895 106.464278,264.660895 C133.126026,264.660895 154.739965,313.844312 154.739965,374.51616 L154.739965,374.51616 Z" id="Shape" fill="#FFFFFF" transform="translate(106.464278, 374.516160) rotate(-38.802205) translate(-106.464278, -374.516160) "></path>
                <path d="M193.18614,448.77522 C193.05532,434.310259 190.648231,418.462343 186.058316,402.287377 C168.62374,340.712244 119.368118,280.407934 76.5787455,275.756347 C42.4234967,272.042926 22.7892746,308.829527 38.8782731,361.228567 C51.2388999,401.485637 84.035489,440.881164 111.610489,441.841757 C131.689499,442.551923 143.220353,419.26969 131.833401,387.158972 C124.187903,365.597957 109.797696,350.017288 91.4698061,346.354326 L136.337349,318.125226" id="Shape" stroke="#252734" stroke-width="18.68858"></path>
                <path d="M127.194896,436.192199 L180.728333,382.754074" id="Shape" stroke="#252734" stroke-width="18.68858"></path>
                <path d="M409.39806,-0.15997972 L404.041913,40.7250267 L441.439631,18.2482716" id="Shape" fill="#252734"></path>
                <path d="M529.769335,130.818933 L477.342262,129.342535 L517.277888,96.9440131" id="Shape" fill="#252734"></path>
                <path d="M126.918305,301.281209 L146.419838,260.919483 L106.14221,278.460584" id="Shape" fill="#252734"></path>
                <path d="M192.425515,204.706103 C231.821042,180.44272 309.498256,265.496316 278.518197,319.784772" id="Shape" stroke="#252734" stroke-width="18.68858"></path>
                <path d="M257.594463,160.498267 C291.934728,138.916695 367.313247,227.255744 331.433042,266.217695" id="Shape" stroke="#252734" stroke-width="18.68858"></path>
                <path d="M306.960347,290.211963 C418.359234,319.541821 378.900166,404.587942 514.668962,446.536328 C484.341135,457.129015 449.711196,450.645947 416.944509,434.493407 L441.73491,491.773905 C337.873127,456.590784 382.860277,333.472288 282.416635,315.594793" id="Shape" fill="#FFFFFF"></path>
                <path d="M263.761694,337.65853 C295.575264,289.554125 340.231626,254.105627 386.091532,232.189529" id="Shape" stroke="#252734" stroke-width="18.68858"></path>
                <path d="M307.141626,287.201233 C404.413816,294.792534 395.585331,396.49018 496.903598,428.258897" id="Shape" stroke="#252734" stroke-width="18.68858"></path>
            </g>
        </g>
    </g>
</svg>